<svg xmlns="http://www.w3.org/2000/svg" xmlns:xlink="http://www.w3.org/1999/xlink" width="534" zoomAndPan="magnify" viewBox="0 0 400.5 112.499997" height="150" preserveAspectRatio="xMidYMid meet" version="1.0"><defs><g/></defs><g fill="#fffefd" fill-opacity="1"><g transform="translate(33.331987, 86.388403)"><g><path d="M 117.390625 -54.859375 C 118.765625 -57.0625 118.515625 -58.90625 116.515625 -60.609375 C 116.21875 -60.859375 115.890625 -61.0625 115.546875 -61.28125 C 112.9375 -62.90625 109.96875 -63.53125 106.9375 -63.65625 C 101.015625 -63.9375 95.1875 -63.1875 89.390625 -62.359375 C 72.03125 -59.78125 54.859375 -55.9375 38.078125 -50.859375 C 29.40625 -48.234375 20.875 -45.234375 12.75 -41.109375 C 10.203125 -39.78125 7.671875 -38.40625 5.671875 -36.28125 C 3.875 -34.40625 4 -32.484375 5.921875 -30.75 C 7.546875 -29.203125 9.546875 -28.328125 11.65625 -27.75 C 20.5 -25.28125 29.5 -24.28125 38.65625 -24.65625 C 39.40625 -24.65625 40.109375 -24.78125 40.703125 -25.328125 C 40.90625 -25.5 41.328125 -25.375 41.28125 -25.703125 C 41.28125 -26.078125 40.859375 -26.203125 40.578125 -26.25 C 40.15625 -26.375 39.703125 -26.375 39.234375 -26.375 C 38.484375 -26.40625 37.734375 -26.375 37.03125 -26.40625 C 31.78125 -26.703125 26.578125 -27.40625 21.40625 -28.5 C 18.5 -29.125 15.625 -29.75 12.78125 -30.65625 C 11.53125 -31.078125 11.375 -31.65625 12.078125 -32.734375 C 12.40625 -33.203125 12.78125 -33.609375 13.15625 -33.984375 C 14.15625 -34.953125 15.28125 -35.703125 16.453125 -36.359375 C 22.578125 -39.953125 29.15625 -42.484375 35.859375 -44.703125 C 56.90625 -51.609375 78.390625 -56.65625 100.4375 -59.15625 C 103.5625 -59.484375 106.71875 -59.65625 109.890625 -59.609375 C 110.6875 -59.5625 110.765625 -59.3125 110.515625 -58.6875 C 110.015625 -57.5625 109.265625 -56.65625 108.4375 -55.78125 C 106.515625 -53.8125 104.34375 -52.109375 102.140625 -50.53125 C 93.9375 -44.53125 85.140625 -39.53125 76.359375 -34.484375 C 73.6875 -32.984375 70.984375 -31.484375 68.3125 -30 C 68.234375 -30.078125 68.1875 -30.125 68.109375 -30.15625 C 68.359375 -30.578125 68.5625 -31 68.8125 -31.40625 C 72.0625 -36.984375 75.359375 -42.609375 78.609375 -48.203125 C 79.484375 -49.78125 80.390625 -51.328125 81.140625 -52.984375 C 81.3125 -53.40625 81.515625 -53.859375 81.0625 -54.28125 C 80.109375 -55.15625 78.9375 -55.0625 78.140625 -54.0625 C 77.859375 -53.6875 77.609375 -53.28125 77.3125 -52.90625 C 72.0625 -45.203125 66.984375 -37.40625 62.234375 -29.375 C 60.609375 -26.65625 58.78125 -24.578125 55.8125 -23.375 C 54.53125 -22.875 53.234375 -22.15625 52.1875 -21.15625 C 51.234375 -20.28125 51.15625 -19.328125 51.953125 -18.28125 C 52.40625 -17.625 52.9375 -17.078125 53.65625 -16.75 C 54.53125 -16.328125 54.484375 -15.875 54.0625 -15.125 C 51.578125 -10.625 49.484375 -5.953125 47.828125 -1.125 C 47.53125 -0.296875 47.734375 0.203125 48.453125 0.546875 C 50.203125 1.296875 50.734375 1.046875 51.53125 -0.25 C 54.03125 -4.578125 56.53125 -8.953125 58.8125 -13.40625 C 59.1875 -14.15625 59.5625 -14.40625 60.4375 -14.203125 C 62.15625 -13.828125 63.859375 -13.578125 65.609375 -13.375 C 74.609375 -12.40625 83.640625 -12.15625 92.734375 -12.28125 C 95.09375 -12.328125 97.46875 -12.53125 99.84375 -12.65625 C 100.21875 -12.703125 100.71875 -12.703125 100.84375 -13.125 C 100.96875 -13.625 100.5625 -13.90625 100.21875 -14.125 C 99.46875 -14.65625 98.59375 -14.875 97.6875 -14.90625 C 91.234375 -15.125 84.734375 -15.40625 78.265625 -15.90625 C 72.90625 -16.328125 67.5625 -17.03125 62.28125 -18.078125 C 62.0625 -18.125 61.6875 -18.078125 61.609375 -18.375 C 61.53125 -18.65625 61.8125 -18.875 62.0625 -19.03125 C 62.859375 -19.578125 63.6875 -20.078125 64.53125 -20.578125 C 75.3125 -26.703125 86.3125 -32.53125 96.890625 -39.078125 C 102.640625 -42.65625 108.34375 -46.28125 113.515625 -50.703125 C 114.96875 -51.90625 116.34375 -53.234375 117.390625 -54.859375 Z M 117.390625 -54.859375 "/></g></g></g><g fill="#fffefd" fill-opacity="1"><g transform="translate(144.144745, 86.388403)"><g><path d="M 12 -22.875 C 13.953125 -25.25 15.28125 -28.03125 16 -31.03125 C 16.40625 -32.859375 15.828125 -34.40625 14.25 -35.53125 C 11.828125 -37.234375 9.296875 -37.203125 7 -35.328125 C 5.421875 -34.03125 4.078125 -32.578125 2.953125 -30.90625 C 0.5 -27.328125 -1.75 -23.578125 -2.75 -19.28125 C -3.25 -17.125 -2.796875 -15.15625 -1.046875 -13.65625 C 0.828125 -12.125 2.953125 -11.328125 5.421875 -11.53125 C 7.453125 -11.703125 9.328125 -12.53125 11.125 -13.5 C 18.203125 -17.203125 24.578125 -21.953125 31.28125 -26.28125 C 31.828125 -26.625 31.703125 -26.90625 31.28125 -27.25 C 30.53125 -27.90625 29.703125 -28 28.75 -27.75 C 27.90625 -27.53125 27.125 -27.203125 26.328125 -26.78125 C 21.5 -24.203125 16.65625 -21.578125 11.78125 -19 C 9.046875 -17.53125 6.328125 -16.03125 3.375 -15.125 C 2.328125 -14.78125 2.171875 -14.90625 2.125 -16.03125 C 2.046875 -18.28125 2.875 -20.328125 3.796875 -22.375 C 7.921875 -19.28125 10.171875 -20.65625 12 -22.875 Z M 5.625 -25.78125 C 7.25 -28.75 9.171875 -31.484375 11.828125 -33.609375 C 11.875 -33.65625 12 -33.65625 12.078125 -33.703125 C 12.25 -33.328125 12.125 -32.953125 12.03125 -32.609375 C 11.125 -29.53125 9.625 -26.828125 7.296875 -24.578125 C 7.046875 -24.328125 6.703125 -23.78125 6.375 -24.15625 C 6 -24.578125 5.296875 -25.15625 5.625 -25.78125 Z M 5.625 -25.78125 "/></g></g></g><g fill="#fffefd" fill-opacity="1"><g transform="translate(169.598354, 86.388403)"><g><path d="M 5 -21.953125 C 8.578125 -29.28125 12.953125 -36.109375 17.125 -43.078125 C 17.40625 -43.578125 17.828125 -43.703125 18.28125 -43.734375 C 24.875 -44.828125 31.484375 -45.703125 38.109375 -46.328125 C 38.578125 -46.359375 39.28125 -46.203125 39.359375 -46.734375 C 39.453125 -47.40625 38.78125 -47.703125 38.234375 -47.90625 C 37.953125 -48.03125 37.609375 -48.03125 37.328125 -48.03125 C 32.234375 -47.953125 27.203125 -47.578125 22.15625 -46.984375 C 21.25 -46.859375 20.28125 -46.609375 19.25 -46.703125 C 19.453125 -47.203125 19.65625 -47.609375 19.875 -47.984375 C 20.03125 -48.40625 20.25 -48.828125 20.40625 -49.234375 C 20.875 -50.328125 20.578125 -50.984375 19.25 -51.78125 C 18.078125 -52.484375 17.53125 -52.4375 16.75 -51.484375 C 15.453125 -49.953125 14.328125 -48.28125 13.203125 -46.578125 C 12.78125 -45.90625 12.25 -45.609375 11.5 -45.484375 C 7.5 -44.859375 3.625 -43.90625 -0.203125 -42.53125 C -1 -42.234375 -0.953125 -41.859375 -0.5 -41.359375 C -0.203125 -40.984375 0.203125 -40.734375 0.671875 -40.78125 C 1.328125 -40.828125 2 -40.859375 2.671875 -40.984375 C 5.125 -41.453125 7.625 -41.90625 10.171875 -42.359375 C 10.171875 -41.90625 9.921875 -41.703125 9.75 -41.484375 C 8.296875 -39.109375 6.75 -36.734375 5.296875 -34.359375 C 2.328125 -29.578125 -0.421875 -24.703125 -2.296875 -19.375 C -3.328125 -16.375 -4.171875 -13.375 -3.75 -10.125 C -3.578125 -8.953125 -3.328125 -7.796875 -2.5 -6.921875 C -0.625 -4.921875 1.25 -4.421875 3.296875 -6.203125 C 3.875 -6.703125 4.5 -7.171875 5.078125 -7.671875 C 10.203125 -12.203125 15.453125 -16.578125 20.75 -20.90625 C 22.703125 -22.5 24.703125 -24.125 26.53125 -25.90625 C 27.15625 -26.53125 27 -26.875 26.375 -27.328125 C 25.78125 -27.75 25.28125 -27.625 24.703125 -27.203125 C 16.875 -21.703125 9.078125 -16.03125 1.703125 -9.921875 C 1.375 -9.578125 1.046875 -9.25 0.453125 -9.078125 C 0.546875 -9.546875 0.578125 -9.875 0.625 -10.203125 C 1.5 -14.375 3.171875 -18.203125 5 -21.953125 Z M 5 -21.953125 "/></g></g></g><g fill="#fffefd" fill-opacity="1"><g transform="translate(192.635741, 86.388403)"><g><path d="M 18.75 -29.203125 C 18.53125 -29.25 18.328125 -29.25 18.15625 -29.203125 C 16.828125 -28.875 15.625 -29.203125 14.453125 -29.828125 C 12.90625 -30.703125 11.375 -30.625 9.875 -29.65625 C 9.375 -29.375 8.875 -29.03125 8.125 -28.578125 C 8.578125 -29.375 8.875 -29.953125 9.171875 -30.5 C 9.796875 -31.65625 9.625 -32.28125 8.5 -33.109375 C 7.125 -34.15625 6.171875 -34.234375 5.25 -33.328125 C 4.328125 -32.453125 3.546875 -31.40625 2.796875 -30.375 C 0.078125 -26.453125 -2.5 -22.5 -4.171875 -18.03125 C -5 -15.828125 -4.296875 -14.40625 -2.046875 -13.578125 C -1.203125 -13.28125 -0.578125 -13.375 0 -14.203125 C 1.875 -17.078125 3.921875 -19.78125 6.296875 -22.28125 C 8.078125 -24.203125 9.875 -26.078125 12.125 -27.453125 C 13.203125 -28.125 14.25 -28.40625 15.5 -27.75 C 16.578125 -27.203125 17.78125 -27 18.953125 -27.5 C 19.328125 -27.65625 20 -27.703125 19.953125 -28.25 C 19.875 -28.78125 19.28125 -29.078125 18.75 -29.203125 Z M 18.75 -29.203125 "/></g></g></g><g fill="#fffefd" fill-opacity="1"><g transform="translate(214.090093, 86.388403)"><g><path d="M 12 -22.875 C 13.953125 -25.25 15.28125 -28.03125 16 -31.03125 C 16.40625 -32.859375 15.828125 -34.40625 14.25 -35.53125 C 11.828125 -37.234375 9.296875 -37.203125 7 -35.328125 C 5.421875 -34.03125 4.078125 -32.578125 2.953125 -30.90625 C 0.5 -27.328125 -1.75 -23.578125 -2.75 -19.28125 C -3.25 -17.125 -2.796875 -15.15625 -1.046875 -13.65625 C 0.828125 -12.125 2.953125 -11.328125 5.421875 -11.53125 C 7.453125 -11.703125 9.328125 -12.53125 11.125 -13.5 C 18.203125 -17.203125 24.578125 -21.953125 31.28125 -26.28125 C 31.828125 -26.625 31.703125 -26.90625 31.28125 -27.25 C 30.53125 -27.90625 29.703125 -28 28.75 -27.75 C 27.90625 -27.53125 27.125 -27.203125 26.328125 -26.78125 C 21.5 -24.203125 16.65625 -21.578125 11.78125 -19 C 9.046875 -17.53125 6.328125 -16.03125 3.375 -15.125 C 2.328125 -14.78125 2.171875 -14.90625 2.125 -16.03125 C 2.046875 -18.28125 2.875 -20.328125 3.796875 -22.375 C 7.921875 -19.28125 10.171875 -20.65625 12 -22.875 Z M 5.625 -25.78125 C 7.25 -28.75 9.171875 -31.484375 11.828125 -33.609375 C 11.875 -33.65625 12 -33.65625 12.078125 -33.703125 C 12.25 -33.328125 12.125 -32.953125 12.03125 -32.609375 C 11.125 -29.53125 9.625 -26.828125 7.296875 -24.578125 C 7.046875 -24.328125 6.703125 -23.78125 6.375 -24.15625 C 6 -24.578125 5.296875 -25.15625 5.625 -25.78125 Z M 5.625 -25.78125 "/></g></g></g><g fill="#fffefd" fill-opacity="1"><g transform="translate(239.543714, 86.388403)"><g><path d="M 13.90625 -16.625 C 15.578125 -15.625 17.28125 -15.328125 19.15625 -16.125 C 20.53125 -16.703125 21.828125 -17.40625 23.03125 -18.28125 C 26.65625 -20.828125 30.15625 -23.578125 33.359375 -26.65625 C 34.203125 -27.40625 34.109375 -27.78125 33.109375 -28.328125 C 31.984375 -28.90625 31.125 -28.328125 30.203125 -27.875 C 27.875 -26.578125 25.703125 -25 23.453125 -23.578125 C 21.328125 -22.25 19.203125 -20.875 16.953125 -19.703125 C 16.828125 -20.203125 17.03125 -20.578125 17.15625 -20.953125 C 17.75 -22.53125 18.328125 -24.125 18.953125 -25.65625 C 19.25 -26.40625 19.03125 -26.953125 18.453125 -27.40625 C 17.53125 -28.15625 16.5 -28.53125 15.203125 -28.28125 C 15.625 -29.25 16.03125 -30.078125 16.375 -30.953125 C 16.75 -31.90625 16.578125 -32.828125 15.78125 -33.484375 C 14.203125 -34.828125 12.40625 -35.484375 10.328125 -34.953125 C 8.75 -34.53125 7.375 -33.65625 6.125 -32.65625 C 2.296875 -29.65625 -0.828125 -26.03125 -3.421875 -21.953125 C -4.328125 -20.5 -5.078125 -19 -5.453125 -17.28125 C -5.921875 -15.328125 -5.453125 -14 -3.75 -12.875 C -1.625 -11.40625 0.546875 -11.03125 2.921875 -12.53125 C 5.953125 -14.5 8.671875 -16.875 11.375 -19.25 C 11.65625 -19.5 11.90625 -19.75 12.40625 -20.15625 C 12.15625 -18.5 12.703125 -17.375 13.90625 -16.625 Z M 2.421875 -17.875 C 2.375 -17.828125 2.328125 -17.875 2.125 -17.90625 C 5.046875 -22.78125 8.421875 -27.25 12.90625 -31.03125 C 12.90625 -29.953125 12.875 -29.125 12.578125 -28.40625 C 12.28125 -27.703125 12.53125 -27.328125 13.078125 -27.078125 C 13.453125 -26.90625 13.625 -26.75 13.25 -26.40625 C 9.828125 -23.328125 6.296875 -20.375 2.421875 -17.875 Z M 2.421875 -17.875 "/></g></g></g><g fill="#fffefd" fill-opacity="1"><g transform="translate(268.62164, 86.388403)"><g><path d="M 11.15625 -27.953125 C 10.75 -27.203125 10.953125 -26.5 11.578125 -25.953125 C 12.203125 -25.375 13 -24.65625 13.875 -25.203125 C 16.03125 -26.40625 18 -27.875 19.453125 -29.875 C 20.28125 -31.03125 20.25 -32.359375 19.375 -33.453125 C 17.875 -35.328125 15.90625 -36.578125 13.453125 -36.40625 C 8.25 -36.03125 4 -33.65625 0.828125 -29.5 C -0.375 -27.875 -0.125 -26.203125 1.203125 -24.625 C 3 -22.578125 5.375 -21.65625 7.875 -20.953125 C 8.5 -20.78125 9.453125 -20.875 9.578125 -20.28125 C 9.75 -19.53125 8.953125 -19 8.375 -18.53125 C 8.046875 -18.25 7.703125 -17.953125 7.328125 -17.703125 C 5.828125 -16.65625 4.375 -15.625 2.875 -14.578125 C 1.796875 -13.78125 0.703125 -13 -0.296875 -12.078125 C -0.875 -11.53125 -0.875 -11 -0.328125 -10.421875 C 0.671875 -9.296875 1.703125 -9.046875 3 -9.75 C 5.421875 -11.03125 7.796875 -12.40625 10.078125 -13.875 C 11.203125 -14.625 12.328125 -15.40625 13.15625 -16.5 C 14.125 -17.78125 14.125 -19.15625 13.203125 -20.40625 C 12.78125 -21 12.25 -21.5 11.703125 -21.90625 C 10.046875 -23.125 8.171875 -23.75 6.25 -24.375 C 5.125 -24.75 5 -25 5.703125 -26 C 7.75 -28.78125 10.578125 -30.453125 13.75 -31.65625 C 13.78125 -31.578125 13.875 -31.484375 13.90625 -31.453125 C 13.28125 -30.75 12.65625 -30.03125 12.078125 -29.28125 C 11.75 -28.875 11.453125 -28.40625 11.15625 -27.953125 Z M 11.15625 -27.953125 "/></g></g></g><g fill="#fffefd" fill-opacity="1"><g transform="translate(289.451091, 86.388403)"><g><path d="M 7.703125 -30.375 C 8.078125 -31.15625 7.953125 -31.703125 7.421875 -32.28125 C 5.75 -33.984375 4.203125 -33.90625 2.921875 -31.90625 C 0.75 -28.453125 -1.078125 -24.828125 -2.546875 -21.03125 C -2.875 -20.15625 -3.078125 -19.25 -3.171875 -18.328125 C -3.25 -17.203125 -2.953125 -16.25 -2.125 -15.40625 C -0.046875 -13.28125 1.921875 -13.125 4.296875 -14.90625 C 6.75 -16.828125 8.921875 -19.078125 11.078125 -21.328125 C 12.328125 -22.625 13.578125 -23.90625 14.953125 -25.328125 C 15.03125 -24.75 14.828125 -24.453125 14.703125 -24.203125 C 13.828125 -22.15625 13.203125 -20.078125 12.875 -17.90625 C 12.328125 -14.28125 16.65625 -12.078125 19 -13.453125 C 20.03125 -14.03125 21.125 -14.625 22.078125 -15.328125 C 26.953125 -18.953125 31.65625 -22.78125 36.453125 -26.578125 C 37.484375 -27.40625 37.359375 -28.03125 36.15625 -28.578125 C 35.78125 -28.75 35.40625 -28.78125 35.03125 -28.703125 C 34.109375 -28.453125 33.328125 -28.078125 32.53125 -27.625 C 29.328125 -25.78125 26.28125 -23.65625 23.25 -21.578125 C 21.203125 -20.203125 19.25 -18.703125 16.953125 -17.328125 C 17.328125 -19.75 18.03125 -21.78125 19 -23.78125 C 20.078125 -25.953125 21.25 -28.078125 22.328125 -30.203125 C 22.953125 -31.40625 22.828125 -31.953125 21.828125 -32.703125 C 20.625 -33.65625 19.75 -33.734375 18.78125 -32.984375 C 17.578125 -31.953125 16.328125 -30.90625 15.078125 -29.90625 C 11.203125 -26.78125 7.75 -23.203125 3.828125 -20.125 C 3.578125 -19.953125 3.421875 -19.625 2.921875 -19.65625 C 3.125 -20.125 3.296875 -20.53125 3.453125 -20.953125 C 4.875 -24.078125 6.25 -27.25 7.703125 -30.375 Z M 7.703125 -30.375 "/></g></g></g><g fill="#fffefd" fill-opacity="1"><g transform="translate(320.653621, 86.388403)"><g><path d="M 18.75 -29.203125 C 18.53125 -29.25 18.328125 -29.25 18.15625 -29.203125 C 16.828125 -28.875 15.625 -29.203125 14.453125 -29.828125 C 12.90625 -30.703125 11.375 -30.625 9.875 -29.65625 C 9.375 -29.375 8.875 -29.03125 8.125 -28.578125 C 8.578125 -29.375 8.875 -29.953125 9.171875 -30.5 C 9.796875 -31.65625 9.625 -32.28125 8.5 -33.109375 C 7.125 -34.15625 6.171875 -34.234375 5.25 -33.328125 C 4.328125 -32.453125 3.546875 -31.40625 2.796875 -30.375 C 0.078125 -26.453125 -2.5 -22.5 -4.171875 -18.03125 C -5 -15.828125 -4.296875 -14.40625 -2.046875 -13.578125 C -1.203125 -13.28125 -0.578125 -13.375 0 -14.203125 C 1.875 -17.078125 3.921875 -19.78125 6.296875 -22.28125 C 8.078125 -24.203125 9.875 -26.078125 12.125 -27.453125 C 13.203125 -28.125 14.25 -28.40625 15.5 -27.75 C 16.578125 -27.203125 17.78125 -27 18.953125 -27.5 C 19.328125 -27.65625 20 -27.703125 19.953125 -28.25 C 19.875 -28.78125 19.28125 -29.078125 18.75 -29.203125 Z M 18.75 -29.203125 "/></g></g></g><g fill="#fffefd" fill-opacity="1"><g transform="translate(342.107961, 86.388403)"><g><path d="M 12 -22.875 C 13.953125 -25.25 15.28125 -28.03125 16 -31.03125 C 16.40625 -32.859375 15.828125 -34.40625 14.25 -35.53125 C 11.828125 -37.234375 9.296875 -37.203125 7 -35.328125 C 5.421875 -34.03125 4.078125 -32.578125 2.953125 -30.90625 C 0.5 -27.328125 -1.75 -23.578125 -2.75 -19.28125 C -3.25 -17.125 -2.796875 -15.15625 -1.046875 -13.65625 C 0.828125 -12.125 2.953125 -11.328125 5.421875 -11.53125 C 7.453125 -11.703125 9.328125 -12.53125 11.125 -13.5 C 18.203125 -17.203125 24.578125 -21.953125 31.28125 -26.28125 C 31.828125 -26.625 31.703125 -26.90625 31.28125 -27.25 C 30.53125 -27.90625 29.703125 -28 28.75 -27.75 C 27.90625 -27.53125 27.125 -27.203125 26.328125 -26.78125 C 21.5 -24.203125 16.65625 -21.578125 11.78125 -19 C 9.046875 -17.53125 6.328125 -16.03125 3.375 -15.125 C 2.328125 -14.78125 2.171875 -14.90625 2.125 -16.03125 C 2.046875 -18.28125 2.875 -20.328125 3.796875 -22.375 C 7.921875 -19.28125 10.171875 -20.65625 12 -22.875 Z M 5.625 -25.78125 C 7.25 -28.75 9.171875 -31.484375 11.828125 -33.609375 C 11.875 -33.65625 12 -33.65625 12.078125 -33.703125 C 12.25 -33.328125 12.125 -32.953125 12.03125 -32.609375 C 11.125 -29.53125 9.625 -26.828125 7.296875 -24.578125 C 7.046875 -24.328125 6.703125 -23.78125 6.375 -24.15625 C 6 -24.578125 5.296875 -25.15625 5.625 -25.78125 Z M 5.625 -25.78125 "/></g></g></g><g fill="#fffefd" fill-opacity="1"><g transform="translate(32.21261, 86.388403)"><g><path d="M 117.390625 -54.859375 C 118.765625 -57.0625 118.515625 -58.90625 116.515625 -60.609375 C 116.21875 -60.859375 115.890625 -61.0625 115.546875 -61.28125 C 112.9375 -62.90625 109.96875 -63.53125 106.9375 -63.65625 C 101.015625 -63.9375 95.1875 -63.1875 89.390625 -62.359375 C 72.03125 -59.78125 54.859375 -55.9375 38.078125 -50.859375 C 29.40625 -48.234375 20.875 -45.234375 12.75 -41.109375 C 10.203125 -39.78125 7.671875 -38.40625 5.671875 -36.28125 C 3.875 -34.40625 4 -32.484375 5.921875 -30.75 C 7.546875 -29.203125 9.546875 -28.328125 11.65625 -27.75 C 20.5 -25.28125 29.5 -24.28125 38.65625 -24.65625 C 39.40625 -24.65625 40.109375 -24.78125 40.703125 -25.328125 C 40.90625 -25.5 41.328125 -25.375 41.28125 -25.703125 C 41.28125 -26.078125 40.859375 -26.203125 40.578125 -26.25 C 40.15625 -26.375 39.703125 -26.375 39.234375 -26.375 C 38.484375 -26.40625 37.734375 -26.375 37.03125 -26.40625 C 31.78125 -26.703125 26.578125 -27.40625 21.40625 -28.5 C 18.5 -29.125 15.625 -29.75 12.78125 -30.65625 C 11.53125 -31.078125 11.375 -31.65625 12.078125 -32.734375 C 12.40625 -33.203125 12.78125 -33.609375 13.15625 -33.984375 C 14.15625 -34.953125 15.28125 -35.703125 16.453125 -36.359375 C 22.578125 -39.953125 29.15625 -42.484375 35.859375 -44.703125 C 56.90625 -51.609375 78.390625 -56.65625 100.4375 -59.15625 C 103.5625 -59.484375 106.71875 -59.65625 109.890625 -59.609375 C 110.6875 -59.5625 110.765625 -59.3125 110.515625 -58.6875 C 110.015625 -57.5625 109.265625 -56.65625 108.4375 -55.78125 C 106.515625 -53.8125 104.34375 -52.109375 102.140625 -50.53125 C 93.9375 -44.53125 85.140625 -39.53125 76.359375 -34.484375 C 73.6875 -32.984375 70.984375 -31.484375 68.3125 -30 C 68.234375 -30.078125 68.1875 -30.125 68.109375 -30.15625 C 68.359375 -30.578125 68.5625 -31 68.8125 -31.40625 C 72.0625 -36.984375 75.359375 -42.609375 78.609375 -48.203125 C 79.484375 -49.78125 80.390625 -51.328125 81.140625 -52.984375 C 81.3125 -53.40625 81.515625 -53.859375 81.0625 -54.28125 C 80.109375 -55.15625 78.9375 -55.0625 78.140625 -54.0625 C 77.859375 -53.6875 77.609375 -53.28125 77.3125 -52.90625 C 72.0625 -45.203125 66.984375 -37.40625 62.234375 -29.375 C 60.609375 -26.65625 58.78125 -24.578125 55.8125 -23.375 C 54.53125 -22.875 53.234375 -22.15625 52.1875 -21.15625 C 51.234375 -20.28125 51.15625 -19.328125 51.953125 -18.28125 C 52.40625 -17.625 52.9375 -17.078125 53.65625 -16.75 C 54.53125 -16.328125 54.484375 -15.875 54.0625 -15.125 C 51.578125 -10.625 49.484375 -5.953125 47.828125 -1.125 C 47.53125 -0.296875 47.734375 0.203125 48.453125 0.546875 C 50.203125 1.296875 50.734375 1.046875 51.53125 -0.25 C 54.03125 -4.578125 56.53125 -8.953125 58.8125 -13.40625 C 59.1875 -14.15625 59.5625 -14.40625 60.4375 -14.203125 C 62.15625 -13.828125 63.859375 -13.578125 65.609375 -13.375 C 74.609375 -12.40625 83.640625 -12.15625 92.734375 -12.28125 C 95.09375 -12.328125 97.46875 -12.53125 99.84375 -12.65625 C 100.21875 -12.703125 100.71875 -12.703125 100.84375 -13.125 C 100.96875 -13.625 100.5625 -13.90625 100.21875 -14.125 C 99.46875 -14.65625 98.59375 -14.875 97.6875 -14.90625 C 91.234375 -15.125 84.734375 -15.40625 78.265625 -15.90625 C 72.90625 -16.328125 67.5625 -17.03125 62.28125 -18.078125 C 62.0625 -18.125 61.6875 -18.078125 61.609375 -18.375 C 61.53125 -18.65625 61.8125 -18.875 62.0625 -19.03125 C 62.859375 -19.578125 63.6875 -20.078125 64.53125 -20.578125 C 75.3125 -26.703125 86.3125 -32.53125 96.890625 -39.078125 C 102.640625 -42.65625 108.34375 -46.28125 113.515625 -50.703125 C 114.96875 -51.90625 116.34375 -53.234375 117.390625 -54.859375 Z M 117.390625 -54.859375 "/></g></g></g><g fill="#fffefd" fill-opacity="1"><g transform="translate(143.025368, 86.388403)"><g><path d="M 12 -22.875 C 13.953125 -25.25 15.28125 -28.03125 16 -31.03125 C 16.40625 -32.859375 15.828125 -34.40625 14.25 -35.53125 C 11.828125 -37.234375 9.296875 -37.203125 7 -35.328125 C 5.421875 -34.03125 4.078125 -32.578125 2.953125 -30.90625 C 0.5 -27.328125 -1.75 -23.578125 -2.75 -19.28125 C -3.25 -17.125 -2.796875 -15.15625 -1.046875 -13.65625 C 0.828125 -12.125 2.953125 -11.328125 5.421875 -11.53125 C 7.453125 -11.703125 9.328125 -12.53125 11.125 -13.5 C 18.203125 -17.203125 24.578125 -21.953125 31.28125 -26.28125 C 31.828125 -26.625 31.703125 -26.90625 31.28125 -27.25 C 30.53125 -27.90625 29.703125 -28 28.75 -27.75 C 27.90625 -27.53125 27.125 -27.203125 26.328125 -26.78125 C 21.5 -24.203125 16.65625 -21.578125 11.78125 -19 C 9.046875 -17.53125 6.328125 -16.03125 3.375 -15.125 C 2.328125 -14.78125 2.171875 -14.90625 2.125 -16.03125 C 2.046875 -18.28125 2.875 -20.328125 3.796875 -22.375 C 7.921875 -19.28125 10.171875 -20.65625 12 -22.875 Z M 5.625 -25.78125 C 7.25 -28.75 9.171875 -31.484375 11.828125 -33.609375 C 11.875 -33.65625 12 -33.65625 12.078125 -33.703125 C 12.25 -33.328125 12.125 -32.953125 12.03125 -32.609375 C 11.125 -29.53125 9.625 -26.828125 7.296875 -24.578125 C 7.046875 -24.328125 6.703125 -23.78125 6.375 -24.15625 C 6 -24.578125 5.296875 -25.15625 5.625 -25.78125 Z M 5.625 -25.78125 "/></g></g></g><g fill="#fffefd" fill-opacity="1"><g transform="translate(168.478978, 86.388403)"><g><path d="M 5 -21.953125 C 8.578125 -29.28125 12.953125 -36.109375 17.125 -43.078125 C 17.40625 -43.578125 17.828125 -43.703125 18.28125 -43.734375 C 24.875 -44.828125 31.484375 -45.703125 38.109375 -46.328125 C 38.578125 -46.359375 39.28125 -46.203125 39.359375 -46.734375 C 39.453125 -47.40625 38.78125 -47.703125 38.234375 -47.90625 C 37.953125 -48.03125 37.609375 -48.03125 37.328125 -48.03125 C 32.234375 -47.953125 27.203125 -47.578125 22.15625 -46.984375 C 21.25 -46.859375 20.28125 -46.609375 19.25 -46.703125 C 19.453125 -47.203125 19.65625 -47.609375 19.875 -47.984375 C 20.03125 -48.40625 20.25 -48.828125 20.40625 -49.234375 C 20.875 -50.328125 20.578125 -50.984375 19.25 -51.78125 C 18.078125 -52.484375 17.53125 -52.4375 16.75 -51.484375 C 15.453125 -49.953125 14.328125 -48.28125 13.203125 -46.578125 C 12.78125 -45.90625 12.25 -45.609375 11.5 -45.484375 C 7.5 -44.859375 3.625 -43.90625 -0.203125 -42.53125 C -1 -42.234375 -0.953125 -41.859375 -0.5 -41.359375 C -0.203125 -40.984375 0.203125 -40.734375 0.671875 -40.78125 C 1.328125 -40.828125 2 -40.859375 2.671875 -40.984375 C 5.125 -41.453125 7.625 -41.90625 10.171875 -42.359375 C 10.171875 -41.90625 9.921875 -41.703125 9.75 -41.484375 C 8.296875 -39.109375 6.75 -36.734375 5.296875 -34.359375 C 2.328125 -29.578125 -0.421875 -24.703125 -2.296875 -19.375 C -3.328125 -16.375 -4.171875 -13.375 -3.75 -10.125 C -3.578125 -8.953125 -3.328125 -7.796875 -2.5 -6.921875 C -0.625 -4.921875 1.25 -4.421875 3.296875 -6.203125 C 3.875 -6.703125 4.5 -7.171875 5.078125 -7.671875 C 10.203125 -12.203125 15.453125 -16.578125 20.75 -20.90625 C 22.703125 -22.5 24.703125 -24.125 26.53125 -25.90625 C 27.15625 -26.53125 27 -26.875 26.375 -27.328125 C 25.78125 -27.75 25.28125 -27.625 24.703125 -27.203125 C 16.875 -21.703125 9.078125 -16.03125 1.703125 -9.921875 C 1.375 -9.578125 1.046875 -9.25 0.453125 -9.078125 C 0.546875 -9.546875 0.578125 -9.875 0.625 -10.203125 C 1.5 -14.375 3.171875 -18.203125 5 -21.953125 Z M 5 -21.953125 "/></g></g></g><g fill="#fffefd" fill-opacity="1"><g transform="translate(191.516364, 86.388403)"><g><path d="M 18.75 -29.203125 C 18.53125 -29.25 18.328125 -29.25 18.15625 -29.203125 C 16.828125 -28.875 15.625 -29.203125 14.453125 -29.828125 C 12.90625 -30.703125 11.375 -30.625 9.875 -29.65625 C 9.375 -29.375 8.875 -29.03125 8.125 -28.578125 C 8.578125 -29.375 8.875 -29.953125 9.171875 -30.5 C 9.796875 -31.65625 9.625 -32.28125 8.5 -33.109375 C 7.125 -34.15625 6.171875 -34.234375 5.25 -33.328125 C 4.328125 -32.453125 3.546875 -31.40625 2.796875 -30.375 C 0.078125 -26.453125 -2.5 -22.5 -4.171875 -18.03125 C -5 -15.828125 -4.296875 -14.40625 -2.046875 -13.578125 C -1.203125 -13.28125 -0.578125 -13.375 0 -14.203125 C 1.875 -17.078125 3.921875 -19.78125 6.296875 -22.28125 C 8.078125 -24.203125 9.875 -26.078125 12.125 -27.453125 C 13.203125 -28.125 14.25 -28.40625 15.5 -27.75 C 16.578125 -27.203125 17.78125 -27 18.953125 -27.5 C 19.328125 -27.65625 20 -27.703125 19.953125 -28.25 C 19.875 -28.78125 19.28125 -29.078125 18.75 -29.203125 Z M 18.75 -29.203125 "/></g></g></g><g fill="#fffefd" fill-opacity="1"><g transform="translate(212.970716, 86.388403)"><g><path d="M 12 -22.875 C 13.953125 -25.25 15.28125 -28.03125 16 -31.03125 C 16.40625 -32.859375 15.828125 -34.40625 14.25 -35.53125 C 11.828125 -37.234375 9.296875 -37.203125 7 -35.328125 C 5.421875 -34.03125 4.078125 -32.578125 2.953125 -30.90625 C 0.5 -27.328125 -1.75 -23.578125 -2.75 -19.28125 C -3.25 -17.125 -2.796875 -15.15625 -1.046875 -13.65625 C 0.828125 -12.125 2.953125 -11.328125 5.421875 -11.53125 C 7.453125 -11.703125 9.328125 -12.53125 11.125 -13.5 C 18.203125 -17.203125 24.578125 -21.953125 31.28125 -26.28125 C 31.828125 -26.625 31.703125 -26.90625 31.28125 -27.25 C 30.53125 -27.90625 29.703125 -28 28.75 -27.75 C 27.90625 -27.53125 27.125 -27.203125 26.328125 -26.78125 C 21.5 -24.203125 16.65625 -21.578125 11.78125 -19 C 9.046875 -17.53125 6.328125 -16.03125 3.375 -15.125 C 2.328125 -14.78125 2.171875 -14.90625 2.125 -16.03125 C 2.046875 -18.28125 2.875 -20.328125 3.796875 -22.375 C 7.921875 -19.28125 10.171875 -20.65625 12 -22.875 Z M 5.625 -25.78125 C 7.25 -28.75 9.171875 -31.484375 11.828125 -33.609375 C 11.875 -33.65625 12 -33.65625 12.078125 -33.703125 C 12.25 -33.328125 12.125 -32.953125 12.03125 -32.609375 C 11.125 -29.53125 9.625 -26.828125 7.296875 -24.578125 C 7.046875 -24.328125 6.703125 -23.78125 6.375 -24.15625 C 6 -24.578125 5.296875 -25.15625 5.625 -25.78125 Z M 5.625 -25.78125 "/></g></g></g><g fill="#fffefd" fill-opacity="1"><g transform="translate(238.424337, 86.388403)"><g><path d="M 13.90625 -16.625 C 15.578125 -15.625 17.28125 -15.328125 19.15625 -16.125 C 20.53125 -16.703125 21.828125 -17.40625 23.03125 -18.28125 C 26.65625 -20.828125 30.15625 -23.578125 33.359375 -26.65625 C 34.203125 -27.40625 34.109375 -27.78125 33.109375 -28.328125 C 31.984375 -28.90625 31.125 -28.328125 30.203125 -27.875 C 27.875 -26.578125 25.703125 -25 23.453125 -23.578125 C 21.328125 -22.25 19.203125 -20.875 16.953125 -19.703125 C 16.828125 -20.203125 17.03125 -20.578125 17.15625 -20.953125 C 17.75 -22.53125 18.328125 -24.125 18.953125 -25.65625 C 19.25 -26.40625 19.03125 -26.953125 18.453125 -27.40625 C 17.53125 -28.15625 16.5 -28.53125 15.203125 -28.28125 C 15.625 -29.25 16.03125 -30.078125 16.375 -30.953125 C 16.75 -31.90625 16.578125 -32.828125 15.78125 -33.484375 C 14.203125 -34.828125 12.40625 -35.484375 10.328125 -34.953125 C 8.75 -34.53125 7.375 -33.65625 6.125 -32.65625 C 2.296875 -29.65625 -0.828125 -26.03125 -3.421875 -21.953125 C -4.328125 -20.5 -5.078125 -19 -5.453125 -17.28125 C -5.921875 -15.328125 -5.453125 -14 -3.75 -12.875 C -1.625 -11.40625 0.546875 -11.03125 2.921875 -12.53125 C 5.953125 -14.5 8.671875 -16.875 11.375 -19.25 C 11.65625 -19.5 11.90625 -19.75 12.40625 -20.15625 C 12.15625 -18.5 12.703125 -17.375 13.90625 -16.625 Z M 2.421875 -17.875 C 2.375 -17.828125 2.328125 -17.875 2.125 -17.90625 C 5.046875 -22.78125 8.421875 -27.25 12.90625 -31.03125 C 12.90625 -29.953125 12.875 -29.125 12.578125 -28.40625 C 12.28125 -27.703125 12.53125 -27.328125 13.078125 -27.078125 C 13.453125 -26.90625 13.625 -26.75 13.25 -26.40625 C 9.828125 -23.328125 6.296875 -20.375 2.421875 -17.875 Z M 2.421875 -17.875 "/></g></g></g><g fill="#fffefd" fill-opacity="1"><g transform="translate(267.502263, 86.388403)"><g><path d="M 11.15625 -27.953125 C 10.75 -27.203125 10.953125 -26.5 11.578125 -25.953125 C 12.203125 -25.375 13 -24.65625 13.875 -25.203125 C 16.03125 -26.40625 18 -27.875 19.453125 -29.875 C 20.28125 -31.03125 20.25 -32.359375 19.375 -33.453125 C 17.875 -35.328125 15.90625 -36.578125 13.453125 -36.40625 C 8.25 -36.03125 4 -33.65625 0.828125 -29.5 C -0.375 -27.875 -0.125 -26.203125 1.203125 -24.625 C 3 -22.578125 5.375 -21.65625 7.875 -20.953125 C 8.5 -20.78125 9.453125 -20.875 9.578125 -20.28125 C 9.75 -19.53125 8.953125 -19 8.375 -18.53125 C 8.046875 -18.25 7.703125 -17.953125 7.328125 -17.703125 C 5.828125 -16.65625 4.375 -15.625 2.875 -14.578125 C 1.796875 -13.78125 0.703125 -13 -0.296875 -12.078125 C -0.875 -11.53125 -0.875 -11 -0.328125 -10.421875 C 0.671875 -9.296875 1.703125 -9.046875 3 -9.75 C 5.421875 -11.03125 7.796875 -12.40625 10.078125 -13.875 C 11.203125 -14.625 12.328125 -15.40625 13.15625 -16.5 C 14.125 -17.78125 14.125 -19.15625 13.203125 -20.40625 C 12.78125 -21 12.25 -21.5 11.703125 -21.90625 C 10.046875 -23.125 8.171875 -23.75 6.25 -24.375 C 5.125 -24.75 5 -25 5.703125 -26 C 7.75 -28.78125 10.578125 -30.453125 13.75 -31.65625 C 13.78125 -31.578125 13.875 -31.484375 13.90625 -31.453125 C 13.28125 -30.75 12.65625 -30.03125 12.078125 -29.28125 C 11.75 -28.875 11.453125 -28.40625 11.15625 -27.953125 Z M 11.15625 -27.953125 "/></g></g></g><g fill="#fffefd" fill-opacity="1"><g transform="translate(288.331715, 86.388403)"><g><path d="M 7.703125 -30.375 C 8.078125 -31.15625 7.953125 -31.703125 7.421875 -32.28125 C 5.75 -33.984375 4.203125 -33.90625 2.921875 -31.90625 C 0.75 -28.453125 -1.078125 -24.828125 -2.546875 -21.03125 C -2.875 -20.15625 -3.078125 -19.25 -3.171875 -18.328125 C -3.25 -17.203125 -2.953125 -16.25 -2.125 -15.40625 C -0.046875 -13.28125 1.921875 -13.125 4.296875 -14.90625 C 6.75 -16.828125 8.921875 -19.078125 11.078125 -21.328125 C 12.328125 -22.625 13.578125 -23.90625 14.953125 -25.328125 C 15.03125 -24.75 14.828125 -24.453125 14.703125 -24.203125 C 13.828125 -22.15625 13.203125 -20.078125 12.875 -17.90625 C 12.328125 -14.28125 16.65625 -12.078125 19 -13.453125 C 20.03125 -14.03125 21.125 -14.625 22.078125 -15.328125 C 26.953125 -18.953125 31.65625 -22.78125 36.453125 -26.578125 C 37.484375 -27.40625 37.359375 -28.03125 36.15625 -28.578125 C 35.78125 -28.75 35.40625 -28.78125 35.03125 -28.703125 C 34.109375 -28.453125 33.328125 -28.078125 32.53125 -27.625 C 29.328125 -25.78125 26.28125 -23.65625 23.25 -21.578125 C 21.203125 -20.203125 19.25 -18.703125 16.953125 -17.328125 C 17.328125 -19.75 18.03125 -21.78125 19 -23.78125 C 20.078125 -25.953125 21.25 -28.078125 22.328125 -30.203125 C 22.953125 -31.40625 22.828125 -31.953125 21.828125 -32.703125 C 20.625 -33.65625 19.75 -33.734375 18.78125 -32.984375 C 17.578125 -31.953125 16.328125 -30.90625 15.078125 -29.90625 C 11.203125 -26.78125 7.75 -23.203125 3.828125 -20.125 C 3.578125 -19.953125 3.421875 -19.625 2.921875 -19.65625 C 3.125 -20.125 3.296875 -20.53125 3.453125 -20.953125 C 4.875 -24.078125 6.25 -27.25 7.703125 -30.375 Z M 7.703125 -30.375 "/></g></g></g><g fill="#fffefd" fill-opacity="1"><g transform="translate(319.534244, 86.388403)"><g><path d="M 18.75 -29.203125 C 18.53125 -29.25 18.328125 -29.25 18.15625 -29.203125 C 16.828125 -28.875 15.625 -29.203125 14.453125 -29.828125 C 12.90625 -30.703125 11.375 -30.625 9.875 -29.65625 C 9.375 -29.375 8.875 -29.03125 8.125 -28.578125 C 8.578125 -29.375 8.875 -29.953125 9.171875 -30.5 C 9.796875 -31.65625 9.625 -32.28125 8.5 -33.109375 C 7.125 -34.15625 6.171875 -34.234375 5.25 -33.328125 C 4.328125 -32.453125 3.546875 -31.40625 2.796875 -30.375 C 0.078125 -26.453125 -2.5 -22.5 -4.171875 -18.03125 C -5 -15.828125 -4.296875 -14.40625 -2.046875 -13.578125 C -1.203125 -13.28125 -0.578125 -13.375 0 -14.203125 C 1.875 -17.078125 3.921875 -19.78125 6.296875 -22.28125 C 8.078125 -24.203125 9.875 -26.078125 12.125 -27.453125 C 13.203125 -28.125 14.25 -28.40625 15.5 -27.75 C 16.578125 -27.203125 17.78125 -27 18.953125 -27.5 C 19.328125 -27.65625 20 -27.703125 19.953125 -28.25 C 19.875 -28.78125 19.28125 -29.078125 18.75 -29.203125 Z M 18.75 -29.203125 "/></g></g></g><g fill="#fffefd" fill-opacity="1"><g transform="translate(340.988584, 86.388403)"><g><path d="M 12 -22.875 C 13.953125 -25.25 15.28125 -28.03125 16 -31.03125 C 16.40625 -32.859375 15.828125 -34.40625 14.25 -35.53125 C 11.828125 -37.234375 9.296875 -37.203125 7 -35.328125 C 5.421875 -34.03125 4.078125 -32.578125 2.953125 -30.90625 C 0.5 -27.328125 -1.75 -23.578125 -2.75 -19.28125 C -3.25 -17.125 -2.796875 -15.15625 -1.046875 -13.65625 C 0.828125 -12.125 2.953125 -11.328125 5.421875 -11.53125 C 7.453125 -11.703125 9.328125 -12.53125 11.125 -13.5 C 18.203125 -17.203125 24.578125 -21.953125 31.28125 -26.28125 C 31.828125 -26.625 31.703125 -26.90625 31.28125 -27.25 C 30.53125 -27.90625 29.703125 -28 28.75 -27.75 C 27.90625 -27.53125 27.125 -27.203125 26.328125 -26.78125 C 21.5 -24.203125 16.65625 -21.578125 11.78125 -19 C 9.046875 -17.53125 6.328125 -16.03125 3.375 -15.125 C 2.328125 -14.78125 2.171875 -14.90625 2.125 -16.03125 C 2.046875 -18.28125 2.875 -20.328125 3.796875 -22.375 C 7.921875 -19.28125 10.171875 -20.65625 12 -22.875 Z M 5.625 -25.78125 C 7.25 -28.75 9.171875 -31.484375 11.828125 -33.609375 C 11.875 -33.65625 12 -33.65625 12.078125 -33.703125 C 12.25 -33.328125 12.125 -32.953125 12.03125 -32.609375 C 11.125 -29.53125 9.625 -26.828125 7.296875 -24.578125 C 7.046875 -24.328125 6.703125 -23.78125 6.375 -24.15625 C 6 -24.578125 5.296875 -25.15625 5.625 -25.78125 Z M 5.625 -25.78125 "/></g></g></g></svg>